<svg width="9" height="18" viewBox="0 0 9 18" fill="none" xmlns="http://www.w3.org/2000/svg">
<path d="M7.57696 2.47955e-05C7.76035 2.47955e-05 7.94374 0.0700245 8.08853 0.220024C8.36844 0.510025 8.36844 0.990025 8.08853 1.28003L1.79531 7.80002C1.33201 8.28002 1.33201 9.06002 1.79531 9.54002L8.08853 16.06C8.36844 16.35 8.36844 16.83 8.08853 17.12C7.80861 17.41 7.34531 17.41 7.0654 17.12L0.77218 10.6C0.279919 10.09 5.72205e-06 9.40002 5.72205e-06 8.67002C5.72205e-06 7.94002 0.270267 7.25002 0.77218 6.74002L7.0654 0.220024C7.21018 0.0800247 7.39357 2.47955e-05 7.57696 2.47955e-05Z" fill="#313131"/>
</svg>
