<svg width="20" height="20" viewBox="0 0 20 20" fill="none" xmlns="http://www.w3.org/2000/svg">
<g clip-path="url(#clip0_1175_5968)">
<path d="M16.0703 0.817383C18.2619 0.821339 20.0458 2.60527 20.0498 4.79688V15.2031C20.0458 17.3947 18.2619 19.1787 16.0703 19.1826H3.92969C1.73808 19.1787 -0.0458487 17.3947 -0.0498047 15.2031V4.79688L-0.0449219 4.59277C0.0652706 2.49552 1.80649 0.821215 3.92969 0.817383H16.0703ZM12.8125 11.4492C12.0609 12.2008 11.0601 12.6123 10 12.6123C8.93599 12.6123 7.93905 12.2007 7.18359 11.4492L0.97168 5.2373V15.2031C0.97168 16.8357 2.29715 18.1611 3.92969 18.1611H16.0703C17.7029 18.1611 19.0283 16.8357 19.0283 15.2031V5.23633L12.8125 11.4492ZM3.92969 1.83887C2.71569 1.84277 1.63693 2.57291 1.1875 3.69824L1.10156 3.91797L7.91016 10.7266C8.46717 11.2836 9.20855 11.5908 10 11.5908C10.7914 11.5908 11.5328 11.2836 12.0938 10.7266L18.9014 3.91797L18.8164 3.69824C18.3669 2.56889 17.292 1.83887 16.0742 1.83887H3.92969Z" fill="#F72E50" stroke="#F72E50" stroke-width="0.1"/>
</g>
<defs>
<clipPath id="clip0_1175_5968">
<rect width="20" height="20" fill="white"/>
</clipPath>
</defs>
</svg>
