<svg width="21" height="22" viewBox="0 0 21 22" fill="none" xmlns="http://www.w3.org/2000/svg">
<path d="M20.9558 17.125C20.9558 16.7108 20.62 16.375 20.2058 16.375H16.2058C15.7916 16.375 15.4558 16.7108 15.4558 17.125C15.4558 17.5392 15.7916 17.875 16.2058 17.875H20.2058C20.62 17.875 20.9558 17.5392 20.9558 17.125Z" fill="#2196F3"/>
<path d="M20.9558 20.125C20.9558 19.7108 20.62 19.375 20.2058 19.375H18.2058C17.7916 19.375 17.4558 19.7108 17.4558 20.125C17.4558 20.5392 17.7916 20.875 18.2058 20.875H20.2058C20.62 20.875 20.9558 20.5392 20.9558 20.125Z" fill="#2196F3"/>
<path fill-rule="evenodd" clip-rule="evenodd" d="M9.82801 1.5C7.75693 1.5 6.078 3.17893 6.078 5.25C6.078 7.32107 7.75693 9 9.82801 9C11.8991 9 13.578 7.32107 13.578 5.25C13.578 3.17893 11.8991 1.5 9.82801 1.5ZM4.578 5.25C4.578 2.35051 6.92851 0 9.82801 0C12.7275 0 15.078 2.35051 15.078 5.25C15.078 8.1495 12.7275 10.5 9.82801 10.5C6.92851 10.5 4.578 8.1495 4.578 5.25Z" fill="#F72E50"/>
<path fill-rule="evenodd" clip-rule="evenodd" d="M10.6663 13.6779C7.55732 13.5141 4.41465 14.1845 1.58366 15.6889C1.53218 15.7162 1.5 15.7698 1.5 15.8281V19.4999C1.5 19.638 1.61193 19.7499 1.75 19.7499H11.7058C12.12 19.7499 12.4558 20.0857 12.4558 20.4999C12.4558 20.9142 12.12 21.2499 11.7058 21.2499H1.75C0.7835 21.2499 0 20.4664 0 19.4999V15.8281C0 15.215 0.33839 14.652 0.87977 14.3643C3.95481 12.7302 7.36859 12.0021 10.7452 12.18C11.1589 12.2018 11.4765 12.5548 11.4547 12.9684C11.4329 13.3821 11.08 13.6997 10.6663 13.6779Z" fill="#F72E50"/>
<path d="M20.9558 14.125C20.9558 13.7108 20.62 13.375 20.2058 13.375H14.2058C13.7916 13.375 13.4558 13.7108 13.4558 14.125C13.4558 14.5392 13.7916 14.875 14.2058 14.875H20.2058C20.62 14.875 20.9558 14.5392 20.9558 14.125Z" fill="#F72E50"/>
<path d="M20.9558 17.125C20.9558 16.7108 20.62 16.375 20.2058 16.375H16.2058C15.7916 16.375 15.4558 16.7108 15.4558 17.125C15.4558 17.5392 15.7916 17.875 16.2058 17.875H20.2058C20.62 17.875 20.9558 17.5392 20.9558 17.125Z" fill="#F72E50"/>
<path d="M20.9558 20.125C20.9558 19.7108 20.62 19.375 20.2058 19.375H18.2058C17.7916 19.375 17.4558 19.7108 17.4558 20.125C17.4558 20.5392 17.7916 20.875 18.2058 20.875H20.2058C20.62 20.875 20.9558 20.5392 20.9558 20.125Z" fill="#F72E50"/>
</svg>
