<svg width="22" height="20" viewBox="0 0 22 20" fill="none" xmlns="http://www.w3.org/2000/svg">
<path d="M10.625 0.849609C12.1553 0.849609 13.4004 2.09466 13.4004 3.625V3.84961H17.375C18.9053 3.84961 20.1504 5.09466 20.1504 6.625V11.125C20.1504 12.6553 18.9053 13.9004 17.375 13.9004H12.875C11.3447 13.9004 10.0996 12.6553 10.0996 11.125V10.9004H2.90039V18.625C2.90039 18.9148 2.66484 19.1504 2.375 19.1504C2.08516 19.1504 1.84961 18.9148 1.84961 18.625V4.0957C1.84967 3.15568 2.12837 2.34541 2.61816 1.76758C3.10958 1.1879 3.80788 0.849609 4.625 0.849609H10.625ZM13.4004 8.125C13.4004 9.47548 12.43 10.6004 11.1504 10.8467V11.125C11.1504 12.0757 11.9243 12.8496 12.875 12.8496H17.375C18.3257 12.8496 19.0996 12.0757 19.0996 11.125V6.625C19.0996 5.67434 18.3257 4.90039 17.375 4.90039H13.4004V8.125ZM4.625 1.90039C4.11036 1.90039 3.68417 2.11444 3.38379 2.49023C3.08126 2.86876 2.90044 3.41986 2.90039 4.0957V9.84961H10.625C11.5757 9.84961 12.3496 9.07566 12.3496 8.125V3.625C12.3496 2.67434 11.5757 1.90039 10.625 1.90039H4.625Z" fill="#F72E50" stroke="#F72E50" stroke-width="0.3"/>
</svg>
