<svg width="146" height="57" viewBox="0 0 146 57" fill="none" xmlns="http://www.w3.org/2000/svg">
<path d="M15.7668 56.4668C12.6634 56.4668 9.93087 55.8726 7.56926 54.6805C5.16224 53.4618 3.3002 51.8231 1.98693 49.7567C0.662311 47.6675 0 45.3551 0 42.8194C0 40.9347 0.344402 39.19 1.0332 37.5929C1.7485 35.9276 2.76657 34.5803 4.07983 33.5547C5.49907 32.4495 7.13403 31.8932 8.9885 31.8932C9.82112 31.8932 10.5213 32.1203 11.0852 32.5744C11.8043 33.1497 12.1638 33.9218 12.1638 34.8906C12.1638 35.939 12.4477 36.8624 13.0153 37.661C13.6209 38.5125 14.4649 39.1786 15.5359 39.6555C16.6978 40.1702 18.0035 40.4275 19.4568 40.4275C21.2053 40.4275 22.6397 40.0377 23.7637 39.2581C24.9445 38.4368 25.8944 37.2825 26.6097 35.7876C26.5416 35.9238 26.5113 36.1131 26.5265 36.3515C26.5492 36.7224 26.6854 37.0403 26.9277 37.309C27.0715 37.4642 27.2493 37.5891 27.4613 37.6875C27.783 37.8351 28.1236 37.8881 28.4794 37.8502C28.9259 37.7972 29.2741 37.6307 29.5163 37.3544L27.8095 35.8595L29.6261 37.222C28.5853 38.6109 27.3553 39.6933 25.9436 40.4767C24.4714 41.2904 22.8327 41.6992 21.0312 41.6992C17.9127 41.6992 15.3315 40.3897 13.2803 37.7707C11.3652 35.3221 10.4077 31.9197 10.4077 27.5674C10.4077 24.0779 11.0625 20.755 12.3682 17.5911C13.6587 14.4574 15.4375 11.6643 17.6969 9.20433C19.9677 6.73675 22.5715 4.78388 25.5122 3.34572C28.5096 1.88107 31.6547 1.15063 34.9511 1.15063C38.8 1.15063 41.7634 2.17248 43.8374 4.22376C45.9227 6.2826 46.9635 8.87885 46.9635 12.0125C46.9635 14.3249 46.4072 16.3232 45.2869 18.015C44.1969 19.6651 42.8042 20.914 41.1125 21.758C39.4586 22.583 37.7101 22.9993 35.8594 22.9993C34.8262 22.9993 33.8649 22.723 32.9755 22.178C32.2451 21.7277 31.7568 21.1335 31.5108 20.4031C31.2535 19.6196 31.3065 18.8287 31.6812 18.0225C31.9953 17.3262 32.0558 16.6941 31.8628 16.1302C31.859 16.1151 31.8552 16.1037 31.8515 16.0961C31.8515 16.0999 31.8552 16.1037 31.859 16.1075L31.8628 16.1151C31.6925 16.0242 31.3935 15.975 30.9583 15.975C30.0046 15.975 29.1682 16.221 28.4415 16.7093C27.6354 17.2505 26.9958 17.9468 26.5303 18.7984C26.0723 19.6272 25.8415 20.4939 25.8415 21.3946C25.8415 22.5414 26.1707 23.4762 26.8217 24.1915C27.4234 24.8462 28.3355 25.1755 29.5655 25.1755C30.3527 25.1755 31.1399 25.0392 31.9272 24.7592C32.5781 24.5321 33.1761 24.1006 33.7211 23.4762L33.7476 23.4459L33.7741 23.4194C34.7883 22.3256 35.9502 21.8223 37.2559 21.9131C38.4064 21.9926 39.3829 22.4354 40.189 23.2377C40.6621 23.7146 40.9913 24.2596 41.1692 24.8727C41.3471 25.482 41.366 26.1141 41.226 26.7726C40.6394 29.2515 40.0111 31.4882 39.345 33.4903L37.2219 39.7917C36.1697 42.9935 34.6142 45.8471 32.5592 48.345C30.4776 50.8731 28.0176 52.8525 25.1678 54.2869C22.2877 55.7402 19.1502 56.4668 15.7668 56.4668ZM15.7668 51.929C18.4312 51.929 20.8874 51.3613 23.1279 50.2335C25.4024 49.0868 27.378 47.4935 29.0546 45.4611C30.7501 43.4023 32.0369 41.0293 32.9225 38.3422L35.0381 32.0559C35.6626 30.1825 36.2454 28.1048 36.7866 25.8189C36.7677 25.9135 36.7753 26.0194 36.8131 26.1443C36.851 26.273 36.9039 26.3752 36.9796 26.4471C36.9759 26.4471 36.9645 26.4433 36.9418 26.4433C37.044 26.4471 37.1348 26.432 37.2143 26.3941V26.3979C37.1802 26.4244 37.1424 26.4623 37.097 26.5077L35.4355 24.9635L37.1499 26.4547C36.0789 27.6847 34.8413 28.5438 33.4372 29.0396C32.1656 29.49 30.8712 29.717 29.5655 29.717C26.9996 29.717 24.9672 28.8958 23.4685 27.2495C22.0266 25.6675 21.3037 23.7146 21.3037 21.3946C21.3037 19.7143 21.72 18.1171 22.5526 16.6071C23.3777 15.1159 24.4941 13.8935 25.9058 12.9435C27.4007 11.9406 29.0811 11.4373 30.9583 11.4373C32.1769 11.4373 33.2101 11.6719 34.0617 12.145C35.0835 12.7127 35.7837 13.5529 36.1622 14.6731C36.7374 16.3686 36.6163 18.1171 35.8026 19.9224C35.9313 19.6423 35.9389 19.3244 35.8178 18.9649C35.7156 18.6546 35.5604 18.4388 35.3522 18.3102C35.515 18.4086 35.6815 18.4578 35.8594 18.4578C36.9948 18.4578 38.0696 18.2042 39.0801 17.7008C40.049 17.2126 40.8589 16.486 41.5023 15.5133C42.1192 14.5785 42.4257 13.4128 42.4257 12.0125C42.4257 10.1429 41.8353 8.62528 40.6507 7.45583C39.4586 6.27503 37.5587 5.68841 34.9511 5.68841C32.3548 5.68841 29.8721 6.26746 27.5067 7.42555C25.077 8.61014 22.9235 10.23 21.0388 12.2775C19.1427 14.3401 17.6515 16.6865 16.5615 19.3244C15.4867 21.932 14.9493 24.6797 14.9493 27.5674C14.9493 30.8789 15.5851 33.3465 16.8567 34.9739C17.9959 36.431 19.3887 37.1614 21.0312 37.1614C22.053 37.1614 22.9576 36.9419 23.7448 36.5067C24.5925 36.0374 25.3419 35.3675 25.9928 34.497L26.0458 34.4289L26.1026 34.3646C26.6287 33.7628 27.2456 33.4222 27.9571 33.3389C28.4453 33.2822 28.9108 33.3579 29.3612 33.5622C29.698 33.7174 29.997 33.9407 30.2657 34.2283C30.7501 34.7544 31.0151 35.3713 31.0567 36.0752C31.0945 36.6467 30.9734 37.203 30.7047 37.7442C29.645 39.962 28.1917 41.7105 26.3486 42.9897C24.4487 44.3068 22.1515 44.9653 19.4568 44.9653C17.3601 44.9653 15.4413 44.5793 13.6928 43.8034C11.8648 42.9897 10.404 41.8203 9.31776 40.2913C8.18994 38.7093 7.62603 36.9078 7.62603 34.8906C7.62603 35.0723 7.66388 35.2577 7.74336 35.447C7.85311 35.7119 8.02342 35.9352 8.2505 36.1168C8.4208 36.2569 8.60625 36.3515 8.79927 36.4007C8.87875 36.4234 8.9393 36.4348 8.9885 36.4348C8.1748 36.4348 7.47086 36.6656 6.87289 37.1349C6.16895 37.6837 5.61261 38.433 5.20008 39.3906C4.76107 40.4124 4.53777 41.5554 4.53777 42.8194C4.53777 44.4771 4.96544 45.9758 5.81698 47.3194C6.68366 48.6856 7.95151 49.7869 9.61675 50.6271C11.3312 51.4938 13.3825 51.929 15.7668 51.929Z" fill="#F72E50"/>
<path d="M51.8323 18.0944C49.9627 18.0944 48.3277 17.6743 46.9199 16.8379C45.9964 16.2853 45.3038 15.5208 44.8459 14.5406C44.4409 13.6777 44.2365 12.671 44.2365 11.528C44.2365 8.57602 45.1714 6.48312 47.041 5.24555C48.6116 4.20856 50.4509 3.69006 52.559 3.69006C54.5383 3.69006 56.2452 4.15179 57.6871 5.07902C58.6598 5.70349 59.3486 6.58152 59.746 7.7207C60.0828 8.67064 60.1963 9.78332 60.0866 11.055C59.8595 13.655 58.8717 15.517 57.1157 16.6449C55.6132 17.6099 53.8533 18.0944 51.8323 18.0944ZM51.8323 13.5566C52.9639 13.5566 53.9063 13.3144 54.6594 12.8262C55.1666 12.5007 55.4656 11.7816 55.564 10.6689C55.6472 9.68114 55.5375 9.09452 55.2385 8.89772C54.5421 8.45491 53.6489 8.23162 52.559 8.23162C51.3592 8.23162 50.3563 8.49655 49.5464 9.03396C49.0317 9.3708 48.7781 10.2034 48.7781 11.528C48.7781 12.2812 48.9333 12.7543 49.2436 12.9397C49.9362 13.3484 50.7991 13.5566 51.8323 13.5566ZM45.1146 50.839C43.7408 50.839 42.5335 50.5703 41.4889 50.0329C40.3762 49.4614 39.4982 48.6136 38.851 47.4896C37.8027 45.6692 37.2766 43.5044 37.2766 41.0028C37.2766 39.4548 37.4318 37.8312 37.7383 36.1244C38.0373 34.4591 38.4196 32.862 38.8889 31.3217C40.3573 26.7574 41.7917 23.2263 43.1996 20.7323C44.9632 17.6024 47.1583 16.0355 49.7772 16.0355C51.2154 16.0355 52.3319 16.5654 53.1304 17.6213C53.7776 18.4766 54.1031 19.6158 54.1031 21.0312C54.1031 22.5073 53.8268 24.0098 53.2705 25.5312L51.908 29.278C51.556 30.2582 51.3781 31.1589 51.3781 31.984C51.3781 32.2451 51.4046 32.4457 51.4538 32.5895C51.4614 32.6236 51.4728 32.6463 51.4803 32.6614C51.4803 32.6576 51.4765 32.6539 51.4728 32.6501C51.5333 32.7106 51.6544 32.7409 51.8323 32.7409C52.1805 32.7409 52.4492 32.6539 52.6422 32.4798C53.1342 32.037 53.63 31.4466 54.1334 30.7048C54.5307 30.1106 55.0379 29.6753 55.651 29.4066C56.3209 29.1114 57.0324 29.0547 57.7817 29.2325C58.7847 29.4748 59.6173 30.0046 60.2872 30.8297C60.6997 31.3444 60.9608 31.8894 61.0668 32.4684C61.1955 33.1951 61.0782 33.8876 60.7186 34.5386L60.6883 34.5916L60.6581 34.6408C60.3099 35.1971 59.8822 36.0373 59.3789 37.1538C58.8112 38.4141 58.1337 39.7765 57.3389 41.2374C56.5139 42.7588 55.5677 44.2045 54.5043 45.5746C53.3613 47.0392 52.0632 48.2579 50.6023 49.2192C48.9749 50.2978 47.1431 50.839 45.1146 50.839ZM45.1146 46.2974C46.2348 46.2974 47.2302 46.0098 48.1007 45.4346C49.1452 44.7458 50.0838 43.8601 50.9202 42.7853C51.8323 41.6121 52.6422 40.3745 53.3499 39.0726C54.0879 37.7101 54.72 36.4498 55.2423 35.2917C55.8289 33.986 56.3512 32.968 56.8091 32.2338L58.7317 33.4373L56.7485 32.3359C56.5896 32.6236 56.5366 32.9377 56.5972 33.2707C56.6312 33.4562 56.6842 33.5962 56.7561 33.6871C56.7372 33.6643 56.7258 33.6492 56.7183 33.6454H56.722C56.9643 33.706 57.2141 33.6795 57.4752 33.5622C57.672 33.4751 57.8082 33.3767 57.8839 33.2632C57.1762 34.3002 56.4458 35.1631 55.6851 35.8481C54.6291 36.8018 53.3424 37.2825 51.8323 37.2825C50.4017 37.2825 49.2096 36.8056 48.2634 35.8594C47.3135 34.9133 46.8404 33.6189 46.8404 31.984C46.8404 30.6329 47.1091 29.2136 47.6427 27.73L49.0052 23.9757C49.3761 22.9538 49.5653 21.9736 49.5653 21.0312C49.5653 20.7625 49.5426 20.5506 49.5048 20.3916C49.4934 20.3538 49.4858 20.3273 49.4783 20.3084C49.482 20.3197 49.4934 20.3349 49.5085 20.3576C49.5729 20.4408 49.6561 20.509 49.7583 20.5544C49.7886 20.5657 49.8151 20.5771 49.8378 20.5809C49.8264 20.5771 49.8037 20.5771 49.7772 20.5771C48.9257 20.5771 48.0515 21.3719 47.1545 22.9614C45.898 25.1906 44.5885 28.4188 43.2298 32.6501C42.8135 34.0163 42.4729 35.4393 42.2042 36.9267C41.9468 38.3649 41.8182 39.7235 41.8182 41.0028C41.8182 42.6983 42.1399 44.1061 42.787 45.2264C42.9876 45.5784 43.245 45.8319 43.5667 45.9985C43.9565 46.1991 44.4712 46.2974 45.1146 46.2974Z" fill="#F72E50"/>
<path d="M75.7986 0C78.3418 0 80.2871 0.643387 81.6345 1.93016C82.9591 3.19423 83.6933 4.73836 83.8409 6.56634C83.9658 8.13317 83.7576 9.7038 83.2089 11.2782C82.6563 12.8564 81.854 14.1999 80.8018 15.3051C79.5264 16.641 78.0996 17.3071 76.5252 17.3071C75.6169 17.3071 74.86 17.0914 74.2544 16.66C73.823 16.3534 73.4975 15.9598 73.278 15.4867C73.0812 15.0704 72.9828 14.6162 72.9828 14.1318C72.9828 13.8366 72.9601 13.602 72.9147 13.4241C72.9033 13.3749 72.892 13.3408 72.8806 13.3143C72.8806 13.3143 72.8882 13.3257 72.8957 13.337C72.9487 13.4052 73.0131 13.4582 73.0926 13.4922C73.1115 13.496 73.1228 13.5036 73.1266 13.5036C73.1001 13.496 73.0623 13.496 73.0131 13.496C72.5097 13.496 72.0101 13.848 71.5144 14.5557C70.6931 15.7289 69.974 17.2352 69.3571 19.0859L67.2037 18.3668V16.096H73.5581C74.421 16.096 75.14 16.4102 75.7229 17.0346C76.1354 17.4812 76.4192 18.0489 76.5668 18.7377C76.7523 19.6082 76.7447 20.5543 76.5441 21.5838C76.3435 22.617 75.9651 23.5404 75.4087 24.3617C75.0189 24.9369 74.5496 25.3797 73.9971 25.6939C73.4029 26.0345 72.7519 26.2048 72.048 26.2048V21.667C71.9761 21.667 71.9042 21.6708 71.8323 21.6746C71.6809 21.6897 71.5295 21.72 71.3819 21.7692C71.0905 21.8563 70.8256 22.0001 70.5947 22.1969C70.2919 22.4504 70.0686 22.7646 69.9324 23.1317C69.7394 23.635 69.7318 24.1422 69.9021 24.6531C70.186 25.5084 70.7688 26.0118 71.6506 26.1669C71.6771 26.1707 71.6998 26.1745 71.7187 26.1783C71.7187 26.1783 71.7187 26.1783 71.7112 26.1783C71.662 26.1707 71.5673 26.1632 71.4349 26.148C71.1472 26.1177 70.6931 26.0723 70.0724 26.0118C68.8424 25.8945 67.3702 25.7733 65.6557 25.656L65.8109 23.389L68.0287 23.8735C67.5594 26.0345 67.1772 28.1955 66.882 30.3565C66.5792 32.5668 66.3294 34.4742 66.1288 36.0789C65.9699 37.5284 65.8336 38.9855 65.7163 40.4615C65.5801 42.0927 65.3265 43.6065 64.9442 44.9917C64.4977 46.6305 63.7483 47.974 62.6962 49.0223C61.4851 50.2334 59.8236 50.839 57.7042 50.839C56.4137 50.839 55.3086 50.6043 54.3889 50.1426C53.3103 49.5976 52.5231 48.7763 52.0311 47.6826C51.3006 46.059 51.172 43.7882 51.6488 40.8778C52.0651 38.3459 52.7653 35.1933 53.7531 31.4124C54.2034 29.804 54.6538 28.2371 55.1004 26.7157C55.5546 25.1716 56.0276 23.6767 56.5234 22.2309L58.6693 22.9689V25.2359H57.8253C55.8043 25.2359 54.3321 24.7931 53.4087 23.9113C52.9091 23.4307 52.5533 22.8895 52.3338 22.2877C52.1068 21.6481 52.05 20.9858 52.1635 20.2932C52.3376 19.2676 52.7653 18.3592 53.4465 17.5758C54.3056 16.588 55.2594 16.096 56.3115 16.096H60.3648V18.3668L58.2568 17.5228C59.6041 14.1659 61.0801 11.2252 62.6886 8.70465C64.3765 6.06298 66.2613 3.98143 68.3504 2.46001C70.606 0.821265 73.0888 0 75.7986 0ZM75.7986 4.53777C74.0728 4.53777 72.4794 5.06762 71.0224 6.1311C69.3987 7.31569 67.8962 8.98472 66.5149 11.1457C65.0578 13.4279 63.7104 16.115 62.4729 19.2108L61.9014 20.6376H56.3115C56.5499 20.6376 56.7581 20.5846 56.9246 20.4824C56.9397 20.4749 56.9549 20.4673 56.9624 20.4559V20.4597C56.9397 20.4786 56.9095 20.5127 56.8716 20.5543C56.7505 20.6944 56.6748 20.8571 56.6445 21.0388C56.6559 20.9555 56.6445 20.8609 56.6105 20.7549C56.5916 20.7095 56.5726 20.6717 56.5499 20.6376V20.6338C56.4969 20.5846 56.4553 20.5506 56.4212 20.5354C56.4553 20.5506 56.5121 20.5695 56.5916 20.5884C56.8905 20.6603 57.2993 20.6982 57.8253 20.6982H61.8484L60.819 23.7031C60.3459 25.0845 59.8918 26.5151 59.4565 27.9949C59.0137 29.5012 58.5785 31.0188 58.1433 32.5592C57.1933 36.2038 56.5196 39.2201 56.1298 41.612C55.8006 43.6217 55.8119 45.0258 56.1715 45.8205C56.3153 46.1385 56.8262 46.2974 57.7042 46.2974C58.5671 46.2974 59.1651 46.1385 59.4868 45.813C59.9712 45.3285 60.3308 44.6549 60.5692 43.792C60.872 42.6793 61.0801 41.4455 61.1899 40.0944C61.311 38.5805 61.4586 37.0553 61.6251 35.515C61.8257 33.8952 62.0793 31.9688 62.382 29.7434C62.6962 27.4613 63.0973 25.1829 63.5969 22.9084L64.0132 20.9896L65.9699 21.1258C67.7259 21.2507 69.2398 21.3718 70.5114 21.4967C71.1397 21.5573 71.6052 21.6027 71.9004 21.633C72.0593 21.6481 72.1767 21.6632 72.2524 21.6708C72.3243 21.6784 72.3886 21.6897 72.4416 21.6973C73.331 21.8563 73.9214 22.3634 74.2052 23.2187C74.3755 23.7259 74.368 24.233 74.1787 24.7364C74.0387 25.1072 73.8154 25.4176 73.5126 25.6712C73.2818 25.868 73.0169 26.0118 72.7254 26.1026C72.5778 26.148 72.4265 26.1783 72.2713 26.1934C72.1956 26.201 72.1237 26.2048 72.048 26.2048V21.667C71.9458 21.667 71.8474 21.6935 71.7452 21.7541C71.7036 21.7768 71.6695 21.7995 71.643 21.826L71.6506 21.8146C71.8588 21.5043 72.0064 21.141 72.0896 20.7171C72.1691 20.297 72.1842 19.9526 72.1275 19.6914C72.154 19.8163 72.2448 19.9601 72.3962 20.1229C72.7141 20.4673 73.1001 20.6376 73.5581 20.6376H64.0548L65.0502 17.6515C65.8071 15.3807 66.723 13.4809 67.7978 11.9481C69.1982 9.95358 70.9353 8.95444 73.0131 8.95444C74.5042 8.95444 75.6661 9.49186 76.4911 10.5667C77.18 11.4599 77.5244 12.6482 77.5244 14.1318C77.5244 13.9464 77.4789 13.7571 77.3919 13.5679C77.2746 13.3219 77.108 13.1213 76.8923 12.9661C76.7561 12.8677 76.6236 12.8034 76.4949 12.7731C76.476 12.7693 76.4647 12.7656 76.4571 12.7656C76.4722 12.7693 76.4949 12.7693 76.5252 12.7693C76.8053 12.7693 77.1345 12.5688 77.5168 12.1714C78.1185 11.5393 78.584 10.7446 78.9209 9.78327C79.2615 8.81062 79.3902 7.86068 79.3183 6.92966C79.2615 6.25221 78.989 5.68073 78.497 5.21144C78.0277 4.76107 77.1308 4.53777 75.7986 4.53777Z" fill="#F72E50"/>
<path d="M76.3415 50.8392C73.3365 50.8392 71.0733 49.8476 69.5481 47.8644C68.1667 46.063 67.4741 43.7884 67.4741 41.0332C67.4741 38.5429 67.9623 35.8861 68.9312 33.0628C69.4573 31.5186 70.0477 29.8496 70.6986 28.0633L72.818 22.2501L74.9488 23.0297V25.2967C73.4349 25.2967 72.2238 24.8425 71.3193 23.938C70.5435 23.1622 70.0401 22.2501 69.8017 21.1979C69.5708 20.1799 69.5859 19.2488 69.8433 18.4011C70.0325 17.7766 70.3429 17.2657 70.7743 16.8721C71.3344 16.3574 72.0005 16.0962 72.7726 16.0962C73.9307 16.0962 74.7898 15.82 75.3575 15.2636C76.1258 14.5143 76.6519 13.7498 76.9357 12.9815L76.9508 12.9437L76.966 12.9096C77.8629 10.7107 78.8469 9.24985 79.9104 8.53077C80.9815 7.80412 82.132 7.44458 83.362 7.44458C84.3876 7.44458 85.2695 7.69058 86.0037 8.18258C86.8098 8.72379 87.3586 9.49207 87.6576 10.4874C88.1079 12.0013 87.7408 13.9731 86.5525 16.399L84.5125 15.4037L86.5752 16.346C86.2421 17.0727 86.068 17.5533 86.0491 17.7918C86.0604 17.6404 86.0415 17.4776 85.9923 17.3035C85.9053 17.0121 85.7501 16.7586 85.5268 16.5428C85.33 16.3536 85.1105 16.2249 84.8683 16.1492C84.7548 16.1152 84.6564 16.0962 84.5731 16.0962H87.7219C88.581 16.0962 89.3039 16.4104 89.8829 17.0348C90.2992 17.4814 90.5793 18.0491 90.7269 18.7379C90.9123 19.6084 90.9048 20.5545 90.7042 21.584C90.5036 22.6172 90.1251 23.5406 89.5688 24.3619C89.179 24.9371 88.7097 25.3799 88.1571 25.6941C87.5629 26.0347 86.912 26.205 86.208 26.205C84.4709 26.205 83.2182 26.2656 82.4499 26.3904C82.272 26.4169 82.1471 26.451 82.0714 26.4964C82.0866 26.4888 82.1055 26.4661 82.1244 26.4321C81.8784 26.8143 81.587 27.5902 81.2426 28.7521C80.8036 30.1864 80.7998 31.2272 81.2313 31.8819C81.4129 32.162 81.6438 32.3664 81.9163 32.4951C82.2569 32.6616 82.6997 32.7411 83.2409 32.7411C84.047 32.7411 84.751 32.5708 85.3489 32.2263C85.981 31.863 86.5033 31.3672 86.9082 30.7466C87.3321 30.107 87.8619 29.6604 88.494 29.3954C89.1828 29.1116 89.9056 29.0738 90.6626 29.2857C91.6125 29.5506 92.4073 30.0615 93.0507 30.8185C93.4897 31.3332 93.7622 31.8933 93.8681 32.5026C93.9893 33.1952 93.8871 33.8651 93.5616 34.5123L93.5502 34.535L93.5389 34.5615C93.1831 35.2313 92.7063 36.1624 92.1121 37.3583C91.48 38.6186 90.7269 39.9811 89.8489 41.4457C88.9254 42.9823 87.8506 44.4318 86.6206 45.7943C85.3262 47.2248 83.854 48.4057 82.2077 49.3367C80.4289 50.3358 78.4723 50.8392 76.3415 50.8392ZM76.3415 46.2976C77.6813 46.2976 78.8924 45.9911 79.9785 45.3817C81.1972 44.6929 82.2872 43.8187 83.2523 42.7514C84.2817 41.6085 85.1824 40.3936 85.9545 39.1106C86.772 37.7481 87.4721 36.4878 88.0512 35.326C88.6643 34.1035 89.1563 33.1384 89.5272 32.4345L91.533 33.498L89.5045 32.4837C89.3796 32.7259 89.3455 32.9946 89.3947 33.286C89.4326 33.4866 89.4969 33.6456 89.5915 33.7591C89.5499 33.7061 89.4969 33.6721 89.4401 33.6569C89.6899 33.7251 89.9548 33.7061 90.2311 33.5888C90.4506 33.498 90.6096 33.3769 90.7118 33.2255C89.9056 34.4593 88.8724 35.4357 87.6084 36.1624C86.3102 36.9079 84.8569 37.2826 83.2409 37.2826C82.0109 37.2826 80.9134 37.0518 79.9521 36.5862C78.9226 36.0942 78.09 35.36 77.4466 34.3874C76.2242 32.5405 76.0387 30.2356 76.8865 27.4729C77.352 25.8909 77.8251 24.7252 78.3057 23.9796C79.0362 22.8442 80.1791 22.1554 81.7346 21.9057C82.7413 21.7467 84.2325 21.6672 86.208 21.6672C86.1096 21.6672 86.0075 21.6937 85.9053 21.7543C85.8636 21.777 85.8334 21.7997 85.8069 21.8262L85.8107 21.8148C86.0226 21.5045 86.1664 21.1412 86.2497 20.7173C86.3329 20.2972 86.3443 19.9528 86.2875 19.6916C86.314 19.8165 86.4049 19.9604 86.5562 20.1231C86.8741 20.4675 87.264 20.6378 87.7219 20.6378H84.5731C83.6799 20.6378 82.9495 20.3615 82.378 19.8128C81.7308 19.1921 81.447 18.3973 81.5227 17.4284C81.587 16.6602 81.8936 15.6686 82.4499 14.4575L82.4726 14.4045C82.8624 13.6135 83.116 12.9512 83.2371 12.41C83.3128 12.0845 83.3355 11.8764 83.3052 11.7818C83.3015 11.7704 83.3015 11.7666 83.3015 11.7628C83.3052 11.778 83.3128 11.7931 83.3279 11.8083C83.3658 11.865 83.415 11.9142 83.4755 11.9521C83.5134 11.9786 83.5437 11.9937 83.5626 11.9975C83.521 11.9899 83.4528 11.9824 83.362 11.9824C83.0592 11.9824 82.7565 12.0845 82.4575 12.2889C82.3742 12.3419 82.2418 12.516 82.0601 12.8074C81.7762 13.254 81.481 13.8633 81.1669 14.6278L79.0664 13.7687L81.1934 14.5559C80.6711 15.9638 79.7855 17.2808 78.5366 18.5071C77.0871 19.9263 75.1645 20.6378 72.7726 20.6378C73.1813 20.6378 73.5371 20.494 73.8474 20.2101C74.0253 20.0474 74.1351 19.8847 74.1843 19.7257C74.1616 19.8052 74.1767 19.9641 74.2297 20.1988C74.2751 20.3956 74.3735 20.5735 74.5287 20.7286C74.5173 20.7173 74.506 20.7059 74.4946 20.6984C74.4946 20.6984 74.5022 20.7021 74.5135 20.7059C74.6119 20.74 74.7595 20.7589 74.9488 20.7589H78.1922L74.9639 29.615C74.3243 31.3748 73.7453 33.0173 73.223 34.5388C72.4168 36.8814 72.0157 39.0463 72.0157 41.0332C72.0157 42.759 72.3941 44.1139 73.1473 45.0979C73.7642 45.9002 74.8277 46.2976 76.3415 46.2976Z" fill="#F72E50"/>
<path d="M98.7926 50.8391C95.8973 50.8391 93.4752 50.1579 91.5299 48.7916C89.6148 47.4519 88.2032 45.6807 87.2873 43.478C86.4206 41.3965 86.0005 39.1219 86.0232 36.6543C86.0459 34.2549 86.4584 31.863 87.2608 29.4749C88.0669 27.0792 89.2326 24.8841 90.7578 22.8896C92.3208 20.8459 94.2169 19.1996 96.4499 17.9582C98.7509 16.679 101.328 16.0356 104.182 16.0356C106.491 16.0356 108.421 16.4974 109.969 17.4133C111.551 18.3518 112.724 19.6121 113.488 21.1941C114.204 22.6739 114.559 24.2559 114.559 25.9325C114.559 27.7794 114.064 29.596 113.064 31.3937C112.077 33.1725 110.699 34.6409 108.932 35.7914C107.104 36.9874 104.973 37.5853 102.547 37.5853C101.586 37.5853 100.647 37.5134 99.7274 37.3772C98.6298 37.2107 97.6155 36.8549 96.677 36.3023C96.8889 36.431 97.1349 36.5029 97.4036 36.5143C97.6307 36.5256 97.8426 36.4916 98.0318 36.4121C98.4444 36.238 98.7434 35.9579 98.9326 35.5606C99.0234 35.3789 99.0651 35.2162 99.0651 35.0723L99.0537 35.0686C99.1294 35.1632 99.2959 35.2691 99.5608 35.3865C100.499 35.8028 101.676 36.0109 103.092 36.0109C104.806 36.0109 106.608 35.5606 108.5 34.656C110.317 33.7894 111.793 32.4874 112.932 30.7427C113.36 30.1031 113.897 29.649 114.54 29.3878C115.222 29.1115 115.941 29.0775 116.694 29.2781C117.674 29.543 118.488 30.0539 119.135 30.8184C119.597 31.3634 119.869 31.9614 119.952 32.6123C120.043 33.3314 119.892 34.0164 119.502 34.6674L117.557 33.4979L119.551 34.5766C116.747 39.7653 113.64 43.7391 110.237 46.4906C106.653 49.3896 102.838 50.8391 98.7926 50.8391ZM98.7926 46.2976C101.767 46.2976 104.632 45.1849 107.384 42.9595C110.317 40.5903 113.042 37.0744 115.558 32.4193L115.585 32.3739L115.611 32.3323C115.464 32.5783 115.407 32.8583 115.449 33.1762C115.479 33.4222 115.555 33.6153 115.676 33.7591C115.638 33.7137 115.585 33.6796 115.513 33.6607C115.74 33.725 115.986 33.7023 116.243 33.5963C116.463 33.5093 116.626 33.3844 116.732 33.2254C115.127 35.6817 113.034 37.521 110.453 38.7548C107.944 39.9507 105.491 40.5487 103.092 40.5487C101.037 40.5487 99.2467 40.2119 97.7253 39.5382C96.7564 39.1105 96.0033 38.5466 95.4621 37.8427C94.8376 37.0366 94.5273 36.1131 94.5273 35.0723C94.5273 34.5274 94.6333 34.0354 94.8414 33.5963C95.1517 32.9529 95.6324 32.4912 96.2871 32.2187C97.2333 31.8251 98.1302 31.8819 98.978 32.389C99.4095 32.6426 99.8863 32.8091 100.401 32.8886C101.097 32.9908 101.813 33.0438 102.547 33.0438C104.072 33.0438 105.374 32.6918 106.449 31.9917C107.588 31.2461 108.47 30.3151 109.098 29.1872C109.711 28.0783 110.022 26.9922 110.022 25.9325C110.022 24.9485 109.813 24.025 109.401 23.1659C109.034 22.409 108.451 21.7921 107.652 21.319C106.82 20.8232 105.662 20.5772 104.182 20.5772C102.112 20.5772 100.272 21.0276 98.6563 21.9245C96.9759 22.8593 95.5453 24.1007 94.3645 25.6448C93.1421 27.2419 92.2111 29.0018 91.5639 30.9244C90.913 32.8545 90.5799 34.7771 90.5648 36.6959C90.5458 38.5466 90.8524 40.227 91.4769 41.7371C92.0559 43.126 92.9415 44.2387 94.1375 45.0751C95.2993 45.8926 96.851 46.2976 98.7926 46.2976ZM100.973 28.506C101.465 28.506 101.82 28.3849 102.032 28.1427C102.316 27.8286 102.456 27.575 102.456 27.3858C102.456 27.3063 102.433 27.2457 102.392 27.2003C102.403 27.2154 102.418 27.2268 102.433 27.2344C102.433 27.2344 102.426 27.2344 102.414 27.2306C102.308 27.1927 102.15 27.1738 101.941 27.1738C101.423 27.1738 101.044 27.2987 100.806 27.5523C100.533 27.8399 100.397 28.0897 100.397 28.2941C100.397 28.347 100.431 28.4114 100.496 28.4833C100.477 28.4644 100.462 28.4492 100.446 28.4379C100.443 28.4379 100.439 28.4341 100.439 28.4341C100.446 28.4379 100.454 28.4417 100.462 28.4455C100.579 28.4833 100.749 28.506 100.973 28.506ZM100.973 33.0438C99.3413 33.0438 98.0659 32.548 97.1538 31.5564C96.2909 30.6178 95.8595 29.5279 95.8595 28.2941C95.8595 26.8862 96.4082 25.5994 97.5058 24.4337C98.6412 23.234 100.121 22.636 101.941 22.636C103.516 22.636 104.757 23.1091 105.669 24.0591C106.551 24.9825 106.994 26.0914 106.994 27.3858C106.994 28.7293 106.472 29.9896 105.419 31.1666C104.303 32.4193 102.819 33.0438 100.973 33.0438Z" fill="#F72E50"/>
<path d="M124.815 50.8391C121.919 50.8391 119.497 50.1579 117.552 48.7916C115.637 47.4519 114.225 45.6807 113.309 43.478C112.443 41.3965 112.022 39.1219 112.045 36.6543C112.068 34.2549 112.48 31.863 113.283 29.4749C114.089 27.0792 115.255 24.8841 116.78 22.8896C118.343 20.8459 120.239 19.1996 122.472 17.9582C124.773 16.679 127.35 16.0356 130.204 16.0356C132.512 16.0356 134.443 16.4974 135.991 17.4133C137.573 18.3518 138.746 19.6121 139.51 21.1941C140.226 22.6739 140.581 24.2559 140.581 25.9325C140.581 27.7794 140.086 29.596 139.086 31.3937C138.099 33.1725 136.721 34.6409 134.954 35.7914C133.126 36.9874 130.995 37.5853 128.569 37.5853C127.608 37.5853 126.669 37.5134 125.749 37.3772C124.652 37.2107 123.638 36.8549 122.699 36.3023C122.911 36.431 123.157 36.5029 123.426 36.5143C123.653 36.5256 123.865 36.4916 124.054 36.4121C124.466 36.238 124.765 35.9579 124.955 35.5606C125.045 35.3789 125.087 35.2162 125.087 35.0723L125.076 35.0686C125.151 35.1632 125.318 35.2691 125.583 35.3865C126.521 35.8028 127.698 36.0109 129.114 36.0109C130.828 36.0109 132.63 35.5606 134.522 34.656C136.339 33.7894 137.815 32.4874 138.954 30.7427C139.382 30.1031 139.919 29.649 140.562 29.3878C141.244 29.1115 141.963 29.0775 142.716 29.2781C143.696 29.543 144.51 30.0539 145.157 30.8184C145.619 31.3634 145.891 31.9614 145.974 32.6123C146.065 33.3314 145.914 34.0164 145.524 34.6674L143.579 33.4979L145.573 34.5766C142.769 39.7653 139.662 43.7391 136.259 46.4906C132.675 49.3896 128.86 50.8391 124.815 50.8391ZM124.815 46.2976C127.789 46.2976 130.654 45.1849 133.406 42.9595C136.339 40.5903 139.064 37.0744 141.58 32.4193L141.607 32.3739L141.633 32.3323C141.486 32.5783 141.429 32.8583 141.471 33.1762C141.501 33.4222 141.577 33.6153 141.698 33.7591C141.66 33.7137 141.607 33.6796 141.535 33.6607C141.762 33.725 142.008 33.7023 142.265 33.5963C142.485 33.5093 142.648 33.3844 142.754 33.2254C141.149 35.6817 139.056 37.521 136.475 38.7548C133.966 39.9507 131.513 40.5487 129.114 40.5487C127.059 40.5487 125.269 40.2119 123.747 39.5382C122.778 39.1105 122.025 38.5466 121.484 37.8427C120.86 37.0366 120.549 36.1131 120.549 35.0723C120.549 34.5274 120.655 34.0354 120.863 33.5963C121.174 32.9529 121.654 32.4912 122.309 32.2187C123.255 31.8251 124.152 31.8819 125 32.389C125.431 32.6426 125.908 32.8091 126.423 32.8886C127.119 32.9908 127.835 33.0438 128.569 33.0438C130.094 33.0438 131.396 32.6918 132.471 31.9917C133.61 31.2461 134.492 30.3151 135.12 29.1872C135.733 28.0783 136.044 26.9922 136.044 25.9325C136.044 24.9485 135.835 24.025 135.423 23.1659C135.056 22.409 134.473 21.7921 133.674 21.319C132.842 20.8232 131.684 20.5772 130.204 20.5772C128.134 20.5772 126.294 21.0276 124.678 21.9245C122.998 22.8593 121.567 24.1007 120.387 25.6448C119.164 27.2419 118.233 29.0018 117.586 30.9244C116.935 32.8545 116.602 34.7771 116.587 36.6959C116.568 38.5466 116.874 40.227 117.499 41.7371C118.078 43.126 118.963 44.2387 120.159 45.0751C121.321 45.8926 122.873 46.2976 124.815 46.2976ZM126.994 28.506C127.486 28.506 127.842 28.3849 128.054 28.1427C128.338 27.8286 128.478 27.575 128.478 27.3858C128.478 27.3063 128.455 27.2457 128.414 27.2003C128.425 27.2154 128.44 27.2268 128.455 27.2344C128.455 27.2344 128.448 27.2344 128.436 27.2306C128.33 27.1927 128.172 27.1738 127.963 27.1738C127.445 27.1738 127.066 27.2987 126.828 27.5523C126.555 27.8399 126.419 28.0897 126.419 28.2941C126.419 28.347 126.453 28.4114 126.518 28.4833C126.499 28.4644 126.484 28.4492 126.468 28.4379C126.465 28.4379 126.461 28.4341 126.461 28.4341C126.468 28.4379 126.476 28.4417 126.484 28.4455C126.601 28.4833 126.771 28.506 126.994 28.506ZM126.994 33.0438C125.363 33.0438 124.088 32.548 123.176 31.5564C122.313 30.6178 121.881 29.5279 121.881 28.2941C121.881 26.8862 122.43 25.5994 123.528 24.4337C124.663 23.234 126.143 22.636 127.963 22.636C129.538 22.636 130.779 23.1091 131.691 24.0591C132.573 24.9825 133.016 26.0914 133.016 27.3858C133.016 28.7293 132.494 29.9896 131.441 31.1666C130.325 32.4193 128.841 33.0438 126.994 33.0438Z" fill="#F72E50"/>
<path d="M15.7707 54.1997C13.023 54.1997 10.6311 53.685 8.595 52.6555C6.55508 51.6261 4.99203 50.2523 3.90205 48.5379C2.81208 46.8234 2.26709 44.916 2.26709 42.8155C2.26709 41.2411 2.55094 39.7991 3.11485 38.4859C3.68254 37.1764 4.46975 36.1243 5.47646 35.3371C6.48317 34.5499 7.65641 34.1563 8.9886 34.1563C9.59414 34.1563 9.89691 34.3985 9.89691 34.8829C9.89691 36.4195 10.3208 37.7819 11.1685 38.9703C12.0163 40.1625 13.1668 41.0821 14.6201 41.7255C16.0734 42.3727 17.6857 42.6944 19.4645 42.6944C21.6747 42.6944 23.5367 42.1721 25.0506 41.12C26.5644 40.0716 27.7642 38.6183 28.6535 36.7601C28.8541 36.3589 28.8352 36.0259 28.593 35.7609C28.3508 35.4998 28.0859 35.5301 27.8058 35.8518C26.958 36.9834 25.9665 37.8614 24.8386 38.4859C23.707 39.1141 22.4392 39.4245 21.0389 39.4245C18.6545 39.4245 16.6676 38.4102 15.0743 36.3816C13.4772 34.3455 12.6824 31.4086 12.6824 27.571C12.6824 24.3843 13.2766 21.3453 14.4687 18.4576C15.6571 15.5737 17.2883 13.0002 19.3585 10.737C21.4363 8.47753 23.8168 6.69119 26.5039 5.37792C29.1872 4.06844 32.0029 3.40991 34.9512 3.40991C38.1795 3.40991 40.613 4.21982 42.2479 5.83208C43.8829 7.44811 44.7004 9.50695 44.7004 12.0086C44.7004 13.8668 44.2652 15.4526 43.3985 16.7621C42.528 18.0754 41.4305 19.0631 40.0983 19.7292C38.7661 20.3953 37.3506 20.7284 35.8595 20.7284C35.2539 20.7284 34.6862 20.5694 34.164 20.244C33.6379 19.9223 33.4979 19.4984 33.7401 18.9723C34.304 17.7234 34.3948 16.5312 34.0126 15.3996C33.6266 14.2718 32.6085 13.7041 30.9546 13.7041C29.5392 13.7041 28.2789 14.0788 27.17 14.8244C26.0573 15.5737 25.1793 16.5312 24.5359 17.7007C23.8887 18.8739 23.567 20.1039 23.567 21.3945C23.567 23.1316 24.0893 24.5736 25.1414 25.7241C26.1898 26.8746 27.662 27.4499 29.5619 27.4499C30.6102 27.4499 31.651 27.2682 32.6804 26.9049C33.7098 26.5416 34.6257 25.8982 35.4356 24.9672C35.9579 24.4033 36.5142 24.1421 37.1008 24.18C37.6837 24.2216 38.1795 24.4449 38.5844 24.8461C38.9856 25.251 39.1294 25.7355 39.0083 26.2994C38.4406 28.6837 37.8351 30.8409 37.1917 32.7787C36.5445 34.7088 35.8368 36.8017 35.0723 39.0611C34.1034 42.0094 32.6804 44.6245 30.8032 46.9029C28.926 49.1812 26.7045 50.9676 24.1423 52.2619C21.5876 53.5525 18.7984 54.1997 15.7707 54.1997Z" fill="white"/>
<path d="M51.84 15.8237C50.3867 15.8237 49.134 15.5133 48.0856 14.8851C47.0335 14.2606 46.5112 13.1404 46.5112 11.5243C46.5112 9.38603 47.1054 7.92138 48.2976 7.13417C49.4859 6.34697 50.9089 5.95337 52.5666 5.95337C54.088 5.95337 55.3862 6.29777 56.4572 6.98279C57.5245 7.67159 57.9786 8.96215 57.8197 10.8583C57.6569 12.7165 57.0098 14.0071 55.882 14.7337C54.7617 15.4604 53.4144 15.8237 51.84 15.8237ZM45.1185 48.5683C43.0975 48.5683 41.6669 47.8341 40.8191 46.3581C39.9714 44.8859 39.5475 43.0995 39.5475 40.9991C39.5475 39.5874 39.6875 38.0925 39.9714 36.5181C40.2514 34.9437 40.6148 33.4374 41.0613 31.9916C42.473 27.5939 43.8468 24.2104 45.179 21.8488C46.5112 19.4872 48.044 18.3064 49.7811 18.3064C51.1512 18.3064 51.84 19.2147 51.84 21.0313C51.84 22.2424 51.6053 23.4838 51.1436 24.7554C50.6781 26.0271 50.2239 27.2798 49.7811 28.5098C49.3345 29.7436 49.115 30.9017 49.115 31.9916C49.115 32.9908 49.3648 33.7439 49.872 34.2473C50.3753 34.7544 51.0301 35.0042 51.84 35.0042C52.7672 35.0042 53.5393 34.7279 54.1562 34.1716C54.7806 33.6077 55.3975 32.881 56.0031 31.9916C56.3248 31.5072 56.7373 31.3255 57.2444 31.4467C57.7478 31.5678 58.1717 31.8403 58.5161 32.2641C58.8567 32.688 58.9286 33.0778 58.728 33.4298C58.323 34.077 57.85 35.0042 57.305 36.2153C56.76 37.4264 56.1015 38.7396 55.337 40.1513C54.58 41.5668 53.7058 42.9065 52.718 44.1782C51.7264 45.4498 50.6062 46.5019 49.3573 47.327C48.1045 48.1558 46.6929 48.5683 45.1185 48.5683Z" fill="white"/>
<path d="M75.7948 2.27466C77.7325 2.27466 79.1555 2.70989 80.0638 3.57657C80.9721 4.43568 81.4755 5.49159 81.5777 6.74052C81.6761 7.99324 81.5058 9.25352 81.063 10.5252C80.6164 11.7968 79.9806 12.8678 79.1555 13.7345C78.3267 14.605 77.4486 15.0364 76.5214 15.0364C75.6736 15.0364 75.2498 14.7337 75.2498 14.1281C75.2498 12.1904 74.5004 11.2215 73.0093 11.2215C71.7149 11.2215 70.5947 11.899 69.6485 13.2501C68.7099 14.605 67.8962 16.3081 67.2112 18.3669H73.5543C73.9554 18.3669 74.2203 18.6508 74.3415 19.2147C74.4626 19.7824 74.4512 20.4258 74.3112 21.1524C74.1674 21.879 73.9062 22.5262 73.524 23.0901C73.1379 23.6578 72.6459 23.9379 72.0404 23.9379C72.1199 23.9379 71.5333 23.8773 70.2843 23.7562C69.043 23.6351 67.5518 23.514 65.8185 23.3929C65.334 25.6145 64.9404 27.8361 64.6377 30.0539C64.3349 32.2754 64.0813 34.1867 63.8807 35.7914C63.718 37.2863 63.578 38.7812 63.4569 40.2724C63.3357 41.7673 63.1011 43.1411 62.7605 44.39C62.4161 45.6428 61.8597 46.6532 61.0952 47.4177C60.327 48.186 59.1954 48.5683 57.7042 48.5683C55.846 48.5683 54.6462 47.9627 54.1012 46.7516C53.5563 45.5406 53.4881 43.705 53.8893 41.2412C54.2943 38.7812 54.9793 35.6967 55.9481 31.9916C56.3909 30.4172 56.8337 28.873 57.2803 27.3592C57.7231 25.8453 58.1886 24.3845 58.6731 22.969H57.8253C56.4099 22.969 55.4637 22.7382 54.9793 22.2727C54.4948 21.8109 54.3056 21.2735 54.404 20.668C54.5062 20.0624 54.756 19.5288 55.1609 19.0633C55.5621 18.6016 55.9481 18.3669 56.3115 18.3669H60.3686C61.6592 15.1386 63.0708 12.3229 64.6074 9.91961C66.1402 7.52016 67.8319 5.64677 69.6788 4.30322C71.5333 2.95211 73.5732 2.27466 75.7948 2.27466Z" fill="white"/>
<path d="M76.3453 48.5682C74.0821 48.5682 72.4168 47.8719 71.3496 46.4791C70.2785 45.0864 69.7449 43.2698 69.7449 41.0293C69.7449 38.7887 70.1915 36.3779 71.0771 33.793C71.5993 32.2716 72.186 30.6215 72.8331 28.8427C73.4765 27.0677 74.1842 25.13 74.9525 23.0295C74.0631 23.0295 73.3857 22.7987 72.924 22.3332C72.4585 21.8714 72.1557 21.3265 72.0157 20.6982C71.8718 20.0737 71.8718 19.5288 72.0157 19.0633C72.1557 18.6015 72.4093 18.3669 72.7726 18.3669C74.5476 18.3669 75.9403 17.8749 76.9508 16.8833C77.9575 15.8955 78.6652 14.8547 79.0702 13.7648C79.7969 11.9898 80.5008 10.8695 81.1896 10.404C81.8746 9.94229 82.6013 9.70764 83.3695 9.70764C84.4974 9.70764 85.2013 10.1845 85.4738 11.1307C85.7539 12.0806 85.436 13.5036 84.5201 15.3997C84.0735 16.3686 83.8313 17.1066 83.7934 17.61C83.7518 18.1171 84.0129 18.3669 84.5806 18.3669H87.7143C88.1155 18.3669 88.3804 18.6507 88.5015 19.2146C88.6226 19.7823 88.6113 20.4257 88.4712 21.1524C88.3274 21.879 88.0663 22.5262 87.684 23.0901C87.298 23.6578 86.806 23.9379 86.2005 23.9379C84.3536 23.9379 82.9835 24.0098 82.0979 24.1498C81.2085 24.2936 80.5841 24.6456 80.2207 25.2095C79.8574 25.7772 79.4714 26.7461 79.0702 28.1161C78.423 30.2166 78.5139 31.8932 79.3427 33.1421C80.1677 34.3834 81.4697 35.0041 83.2484 35.0041C84.4595 35.0041 85.5344 34.7392 86.4729 34.2018C87.4191 33.6568 88.1987 32.9226 88.8043 31.9916C89.126 31.5071 89.5385 31.3368 90.0456 31.4768C90.549 31.6207 90.9729 31.8932 91.3173 32.2943C91.6579 32.6993 91.7298 33.0967 91.5292 33.4903C91.1659 34.1791 90.6815 35.1252 90.0759 36.3363C89.4704 37.5474 88.7437 38.8607 87.896 40.2723C87.0482 41.6878 86.0566 43.02 84.9288 44.2689C83.8086 45.5216 82.5294 46.551 81.0988 47.3572C79.6644 48.1671 78.0786 48.5682 76.3453 48.5682Z" fill="white"/>
<path d="M98.8 48.5683C96.3778 48.5683 94.3871 48.0233 92.8354 46.9333C91.2799 45.8434 90.1294 44.4014 89.3838 42.6037C88.6345 40.8098 88.2711 38.8305 88.2938 36.6694C88.3128 34.5122 88.6875 32.3549 89.4141 30.2053C90.1407 28.048 91.1891 26.0687 92.5629 24.271C93.9329 22.4771 95.5982 21.0313 97.5586 19.9414C99.5153 18.8514 101.722 18.3064 104.174 18.3064C106.07 18.3064 107.614 18.6622 108.807 19.3661C109.995 20.0738 110.873 21.0124 111.441 22.1819C112.005 23.3551 112.288 24.604 112.288 25.9362C112.288 27.3895 111.883 28.8428 111.077 30.2961C110.267 31.7494 109.14 32.9529 107.686 33.8991C106.233 34.8377 104.522 35.307 102.554 35.307C101.707 35.307 100.878 35.2464 100.072 35.1253C99.2617 35.0042 98.5161 34.7431 97.8311 34.3381C97.6267 34.217 97.4072 34.2094 97.165 34.3078C96.9228 34.41 96.8017 34.6636 96.8017 35.0647C96.8017 36.1169 97.4148 36.9116 98.6486 37.4566C99.8786 38.0016 101.358 38.2741 103.084 38.2741C105.143 38.2741 107.27 37.7518 109.473 36.6997C111.672 35.6514 113.458 34.0807 114.832 31.9916C115.153 31.5072 115.577 31.3369 116.103 31.4769C116.626 31.6207 117.061 31.8932 117.405 32.2944C117.746 32.6994 117.799 33.0967 117.557 33.4903C114.892 38.4179 111.974 42.1609 108.807 44.7231C105.635 47.2891 102.301 48.5683 98.8 48.5683ZM100.98 30.7805C102.138 30.7805 103.054 30.4096 103.72 29.6603C104.386 28.9147 104.719 28.1578 104.719 27.3895C104.719 26.7045 104.485 26.1179 104.023 25.6334C103.557 25.149 102.865 24.9068 101.949 24.9068C100.776 24.9068 99.8483 25.2701 99.1633 25.9968C98.4745 26.7234 98.1339 27.4917 98.1339 28.2978C98.1339 28.945 98.3648 29.5203 98.8303 30.0236C99.292 30.5308 100.011 30.7805 100.98 30.7805Z" fill="white"/>
<path d="M124.822 48.5683C122.4 48.5683 120.409 48.0233 118.857 46.9333C117.302 45.8434 116.151 44.4014 115.406 42.6037C114.656 40.8098 114.293 38.8305 114.316 36.6694C114.335 34.5122 114.709 32.3549 115.436 30.2053C116.163 28.048 117.211 26.0687 118.585 24.271C119.955 22.4771 121.62 21.0313 123.581 19.9414C125.537 18.8514 127.744 18.3064 130.196 18.3064C132.092 18.3064 133.636 18.6622 134.829 19.3661C136.017 20.0738 136.895 21.0124 137.463 22.1819C138.027 23.3551 138.31 24.604 138.31 25.9362C138.31 27.3895 137.905 28.8428 137.099 30.2961C136.289 31.7494 135.162 32.9529 133.708 33.8991C132.255 34.8377 130.544 35.307 128.576 35.307C127.729 35.307 126.9 35.2464 126.094 35.1253C125.284 35.0042 124.538 34.7431 123.853 34.3381C123.649 34.217 123.429 34.2094 123.187 34.3078C122.945 34.41 122.824 34.6636 122.824 35.0647C122.824 36.1169 123.437 36.9116 124.671 37.4566C125.901 38.0016 127.38 38.2741 129.106 38.2741C131.165 38.2741 133.292 37.7518 135.495 36.6997C137.693 35.6514 139.48 34.0807 140.854 31.9916C141.175 31.5072 141.599 31.3369 142.125 31.4769C142.648 31.6207 143.083 31.8932 143.427 32.2944C143.768 32.6994 143.821 33.0967 143.579 33.4903C140.914 38.4179 137.996 42.1609 134.829 44.7231C131.657 47.2891 128.323 48.5683 124.822 48.5683ZM127.002 30.7805C128.16 30.7805 129.076 30.4096 129.742 29.6603C130.408 28.9147 130.741 28.1578 130.741 27.3895C130.741 26.7045 130.506 26.1179 130.045 25.6334C129.579 25.149 128.887 24.9068 127.971 24.9068C126.798 24.9068 125.87 25.2701 125.185 25.9968C124.496 26.7234 124.156 27.4917 124.156 28.2978C124.156 28.945 124.387 29.5203 124.852 30.0236C125.314 30.5308 126.033 30.7805 127.002 30.7805Z" fill="white"/>
</svg>
